<?xml version="1.0" encoding="UTF-8" standalone="no"?>
<svg width="59px" height="68px" viewBox="0 0 59 68" version="1.1" xmlns="http://www.w3.org/2000/svg" xmlns:xlink="http://www.w3.org/1999/xlink" xmlns:sketch="http://www.bohemiancoding.com/sketch/ns">
    <!-- Generator: Sketch 3.3.2 (12043) - http://www.bohemiancoding.com/sketch -->
    <title>android</title>
    <desc>Created with Sketch.</desc>
    <defs></defs>
    <g id="Page-1" stroke="none" stroke-width="1" fill="none" fill-rule="evenodd" sketch:type="MSPage">
        <g id="android" sketch:type="MSArtboardGroup" fill="#34495E">
            <path d="M12.6230744,22.8661525 L47.2773138,22.8661525 L47.2773138,51.1056181 C47.2773138,52.7832494 45.9171898,54.1433734 44.2416061,54.1433734 L40.7705256,54.1433734 L40.7705256,62.7437133 C40.7705256,64.9277438 39.0285227,66.6977734 36.8781497,66.6977734 C34.7222739,66.6977734 32.9828304,64.9277438 32.9828304,62.7437133 L32.9828304,54.1433734 L26.9205013,54.1433734 L26.9205013,62.7437133 C26.9205013,64.9277438 25.1750429,66.6977734 23.024798,66.6977734 C20.874937,66.6977734 19.1296066,64.9277438 19.1296066,62.7437133 L19.1296066,54.1433734 L15.6615976,54.1433734 C13.9856299,54.1433734 12.6229464,52.7832494 12.6229464,51.1056181 L12.6229464,22.8661525 L12.6230744,22.8661525 Z M5.83205262,22.6356685 C3.65979587,22.6356685 1.90026023,24.4225909 1.90026023,26.6285052 L1.90026023,42.2334581 C1.90026023,44.4368129 3.65979587,46.2268067 5.83205262,46.2268067 C8.00469329,46.2268067 9.763845,44.4368129 9.763845,42.2334581 L9.763845,26.6285052 C9.763845,24.4225909 8.00469329,22.6356685 5.83205262,22.6356685 L5.83205262,22.6356685 Z M47.2774418,20.0204884 L12.6230744,20.0204884 C13.0507687,15.0834482 16.2533564,10.8349164 20.8636751,8.37497064 L17.568817,3.53698349 C17.1244859,2.88456421 17.2921339,1.99436638 17.9458329,1.5501633 C18.5987641,1.10596022 19.4871703,1.27488792 19.9336769,1.9267953 L23.5247984,7.20348259 C25.5158418,6.51497421 27.6770926,6.11965778 29.9501941,6.11965778 C32.2259831,6.11965778 34.3873619,6.51497421 36.3782773,7.20437842 L39.9693988,1.92871493 C40.4104025,1.2750159 41.3016241,1.10608819 41.9545553,1.55029128 C42.6082543,1.99449436 42.7759023,2.88469219 42.3315712,3.53711147 L39.0394006,8.37509862 C43.6495913,10.8335087 46.8500035,15.0820405 47.2774418,20.0204884 L47.2774418,20.0204884 Z M24.5579449,13.3121388 C24.5579449,12.2533972 23.7006368,11.3946814 22.6422791,11.3946814 C21.5812339,11.3946814 20.7239258,12.2533972 20.7239258,13.3121388 C20.7239258,14.3703685 21.5840494,15.2287005 22.6422791,15.2287005 C23.7005088,15.2287005 24.5579449,14.3703685 24.5579449,13.3121388 L24.5579449,13.3121388 Z M39.4193599,13.3121388 C39.4193599,12.2533972 38.5591084,11.3946814 37.5010067,11.3946814 C36.4399615,11.3946814 35.5852129,12.2533972 35.5852129,13.3121388 C35.5852129,14.3703685 36.4399615,15.2287005 37.5010067,15.2287005 C38.5592364,15.2287005 39.4193599,14.3703685 39.4193599,13.3121388 L39.4193599,13.3121388 Z M54.0710231,22.6301656 C51.9010699,22.6301656 50.1365432,24.4197755 50.1365432,26.6258177 L50.1365432,42.2362736 C50.1365432,44.4423159 51.9010699,46.2324377 54.0710231,46.2324377 C56.2437917,46.2324377 58,44.4424439 58,42.2362736 L58,26.6258177 C58.000128,24.4197755 56.2437917,22.6301656 54.0710231,22.6301656 L54.0710231,22.6301656 Z" id="Shape-Copy" sketch:type="MSShapeGroup"></path>
        </g>
    </g>
</svg>