<?xml version="1.0" encoding="UTF-8" standalone="no"?>
<svg width="91px" height="58px" viewBox="0 0 91 58" version="1.1" xmlns="http://www.w3.org/2000/svg" xmlns:xlink="http://www.w3.org/1999/xlink" xmlns:sketch="http://www.bohemiancoding.com/sketch/ns">
    <!-- Generator: Sketch 3.3.2 (12043) - http://www.bohemiancoding.com/sketch -->
    <title>ios</title>
    <desc>Created with Sketch.</desc>
    <defs></defs>
    <g id="Page-1" stroke="none" stroke-width="1" fill="none" fill-rule="evenodd" sketch:type="MSPage">
        <g id="ios" sketch:type="MSArtboardGroup" fill="#34495E">
            <g id="Group" sketch:type="MSLayerGroup" transform="translate(1.000000, 1.000000)">
                <path d="M32.5757833,54.824825 C25.2061124,55.10835 19.812663,51.586975 15.7308212,45.8744 C8.73090034,36.0778 8.7234668,19.67735 15.5045111,9.739675 C18.8650238,4.814975 23.3455238,1.50095 29.2736377,0.561825 C41.7195934,-1.4102 49.9680744,5.791225 53.0835554,15.04525 C56.3675301,24.8006 56.2797041,34.507275 51.1249541,43.711525 C47.9703782,49.34435 43.3629573,53.30105 36.8167579,54.5347 C35.4341187,54.7954 33.9909098,54.73655 32.5757833,54.824825 L32.5757833,54.824825 Z M53.0719921,27.704875 C52.8129193,25.162775 52.721239,22.589875 52.2587073,20.08545 C51.3881567,15.3714 49.5820807,11.01265 46.0773022,7.615575 C37.1416314,-1.04445 21.3123117,0.851125 15.4062231,14.2791 C11.6151155,22.89815 11.6478782,31.72895 15.1176915,40.4536 C17.6624415,46.8523 22.1688212,51.3909 29.1588307,52.463125 C36.8641124,53.64535 43.4064573,51.172 48.0617833,44.698225 C51.6918307,39.649775 53.1504573,33.917675 53.0719921,27.704875 L53.0719921,27.704875 Z" id="Fill-1" sketch:type="MSShapeGroup"></path>
                <path d="M84.203951,2.70105 C83.9776409,3.2802 83.7656472,3.82305 83.5968782,4.25425 C81.4557421,3.6036 79.4429035,2.839375 77.3612358,2.39525 C74.1405839,1.7083 71.0383181,2.371325 68.2306409,4.01665 C61.344701,8.051175 61.0291883,17.131675 67.6725744,21.6711 C69.8461978,23.156375 72.3645174,24.129325 74.6650617,25.4419 C77.3551788,26.976675 80.1309193,28.424 82.6032611,30.265675 C89.205625,35.18295 88.3023117,47.08715 81.272106,51.894425 C78.5007706,53.789175 75.5537833,54.8427 72.1525238,54.802 C68.8682738,54.76295 65.6426662,54.591625 62.6447453,53.0981 C61.6310301,52.592925 60.6721029,51.977475 59.5939636,51.35845 C59.9152579,50.69735 60.1677231,50.177325 60.4906693,49.512925 C61.5933117,50.09565 62.5940871,50.71495 63.6636915,51.17475 C68.8338592,53.3962 74.0191693,53.874425 79.1061915,50.966025 C85.6741409,47.2109 87.7255238,35.84845 79.9252579,30.838775 C76.7092864,28.77325 73.1128276,27.304475 69.7225807,25.5024 C68.3936282,24.795925 67.12497,23.9635 65.8808149,23.1132 C58.4530522,18.0356 59.8246788,8.1422 65.5553909,3.3792 C70.2354953,-0.5104 79.5778086,-0.605275 84.203951,2.70105" id="Fill-2" sketch:type="MSShapeGroup"></path>
                <path d="M1.36370731,16.55445 L3.20171997,16.55445 L3.20171997,54.002025 L1.36370731,54.002025 L1.36370731,16.55445" id="Fill-3" sketch:type="MSShapeGroup"></path>
                <path d="M2.07815351,3.4738 C3.29450161,3.4485 4.07144465,4.1206 4.0706187,5.1975 C4.07006807,6.292825 3.15684338,7.315275 2.12715984,7.25945 C1.03910921,7.20005 0.490403509,6.55875 0.48104275,5.4571 C0.470856041,4.2251 1.04957123,3.49525 2.07815351,3.4738" id="Fill-4" sketch:type="MSShapeGroup"></path>
            </g>
        </g>
    </g>
</svg>