<!-- Generator: Avocode undefined - http://avocode.com -->
<svg height="34" width="78" xmlns:xlink="http://www.w3.org/1999/xlink" xmlns="http://www.w3.org/2000/svg" viewBox="0 0 78 34">
    <path fill="#34495e" fill-rule="evenodd" d="M 8.36 28.65 C 8.36 30.8 6.62 32.54 4.47 32.55 C 2.32 32.55 0.58 30.8 0.58 28.65 L 0.58 28.65 C 0.57 26.49 2.32 24.75 4.46 24.75 C 6.61 24.74 8.36 26.49 8.36 28.64 L 8.36 28.65" />
    <path fill="#34495e" fill-rule="evenodd" d="M 66.82 0.53 L 66.82 6.15 L 51.04 6.15 C 50.48 6.08 49.89 6.04 49.29 6.04 C 45.8 6.04 42.96 7.26 40.78 9.69 C 38.59 12.13 37.49 15.56 37.49 19.97 C 37.49 24.23 38.58 27.55 40.74 29.91 C 40.77 29.94 40.8 29.97 40.83 30 L 32.33 30 L 32.33 16.73 C 32.33 14.67 32.25 13.23 32.09 12.41 C 31.84 11.14 31.39 10.05 30.76 9.13 C 30.13 8.2 29.17 7.46 27.89 6.89 C 26.62 6.32 25.22 6.04 23.7 6.04 C 20.19 6.04 17.52 7.48 15.66 10.36 L 15.66 6.63 L 11.81 6.63 L 11.81 32.86 L 16.09 32.86 L 16.09 18.54 C 16.09 15.18 16.75 12.9 18.07 11.7 C 19.4 10.49 20.97 9.89 22.79 9.89 C 23.94 9.89 24.93 10.16 25.78 10.69 C 26.63 11.23 27.22 11.95 27.55 12.84 C 27.88 13.74 28.05 15.09 28.05 16.9 L 28.05 32.86 L 45.39 32.86 C 46.64 33.26 48.02 33.46 49.52 33.46 C 52.46 33.46 54.87 32.71 56.76 31.23 C 58.64 29.75 59.93 27.67 60.63 24.98 L 56.21 24.41 C 55.56 26.29 54.68 27.66 53.57 28.52 C 52.46 29.37 51.12 29.8 49.55 29.8 C 47.44 29.8 45.68 29.03 44.27 27.5 C 42.86 25.97 42.08 23.76 41.92 20.88 L 60.75 20.88 C 60.77 20.35 60.78 19.96 60.78 19.69 C 60.78 15.36 59.71 12.01 57.57 9.62 C 57.56 9.62 57.56 9.61 57.56 9.61 L 66.82 9.61 L 66.82 25.18 C 66.82 27.85 66.99 29.6 67.34 30.43 C 67.69 31.26 68.29 31.93 69.15 32.44 C 70 32.95 71.21 33.21 72.76 33.21 L 77.49 33.21 L 77.49 29.05 L 73.5 29.05 C 72.86 29.05 72.38 28.95 72.04 28.74 C 71.7 28.52 71.45 28.23 71.3 27.87 C 71.15 27.51 71.08 26.7 71.08 25.43 L 71.08 9.61 L 76.65 9.61 L 76.65 6.15 L 71.08 6.15 L 71.08 0.53 L 66.82 0.53 L 66.82 0.53 Z M 49.34 9.69 C 51.51 9.69 53.28 10.55 54.64 12.26 C 55.53 13.37 56.06 15.02 56.25 17.22 L 42.15 17.22 C 42.29 14.94 43.04 13.11 44.38 11.75 C 45.71 10.38 47.37 9.69 49.34 9.69 L 49.34 9.69 Z M 49.34 9.69" />
</svg>