<?xml version="1.0" encoding="UTF-8" standalone="no"?>
<svg width="73px" height="73px" viewBox="0 0 73 73" version="1.1" xmlns="http://www.w3.org/2000/svg" xmlns:xlink="http://www.w3.org/1999/xlink" xmlns:sketch="http://www.bohemiancoding.com/sketch/ns">
    <!-- Generator: Sketch 3.3.2 (12043) - http://www.bohemiancoding.com/sketch -->
    <title>ico-python</title>
    <desc>Created with Sketch.</desc>
    <defs></defs>
    <g id="Page-1" stroke="none" stroke-width="1" fill="none" fill-rule="evenodd" sketch:type="MSPage">
        <g id="ico-python" sketch:type="MSArtboardGroup" fill="#34495E">
            <path d="M34.7593755,71.8106122 C32.6699948,71.7210558 31.2575498,71.5911798 29.8112196,71.3554518 C25.92648,70.7223675 23.0810281,69.4994911 21.2570294,67.6791293 C20.1580492,66.5822123 19.4697485,65.3008322 19.2339505,63.9129357 C19.1794684,63.592442 19.1751322,62.8961683 19.1788739,55.0657028 C19.1828953,46.5922917 19.18898,46.1237031 19.3054627,45.3424889 C19.9069697,41.3080808 22.713221,38.7623158 27.3284692,38.0643286 C27.6999831,38.0081329 28.4460531,38.0018034 37.1198732,37.9810317 C47.1651543,37.9569728 46.6909706,37.9655403 47.7330557,37.7899944 C50.2590981,37.364453 52.2552856,36.1039146 53.5767754,34.1000339 C54.3979595,32.8545323 54.9184076,31.4154057 55.2081282,29.5889942 C55.2812141,29.1284835 55.2834871,29.0012302 55.3022656,24.3960532 L55.3214987,19.6751977 L58.5386743,19.6751977 C62.0692098,19.6751977 62.0926392,19.6763167 62.9147674,19.8861675 C67.0922,20.9521366 69.8956888,25.0766606 70.8286697,31.5298952 L70.9348715,32.2642505 L70.9348715,36.8522227 C70.9348715,41.2282809 70.9318291,41.4615261 70.8664016,41.9052865 C70.1885217,46.5058476 68.5069879,49.8468145 65.8819125,51.8092916 C64.7361434,52.6658297 63.4391671,53.2487679 62.0702589,53.5224726 C61.2050135,53.6954657 61.935627,53.6867584 48.5283975,53.683821 L36.0356151,53.6810933 L36.0356151,54.8885483 L36.0356151,56.0960382 L44.5279096,56.0960382 L53.020204,56.0960382 L53.0448924,60.3535505 C53.0620273,63.3091907 53.0581807,64.6911425 53.0323034,64.8733325 C52.7194681,67.072307 50.8880559,68.9441087 47.8904176,70.1288686 C45.5894376,71.0382103 42.9275745,71.5379216 39.1834116,71.7635435 C38.5842476,71.7996318 35.3126598,71.8349158 34.7597951,71.8112416 L34.7593755,71.8106122 L34.7593755,71.8106122 Z M46.3551954,66.3938676 C47.2791542,66.1995082 48.0921904,65.5556535 48.4996177,64.6957234 C48.7105176,64.2505992 48.7743016,63.946681 48.7743016,63.387487 C48.7743016,63.0006216 48.7590899,62.8421757 48.7017403,62.6323599 C48.4042914,61.5439055 47.5845061,60.7208331 46.505983,60.4276155 C46.1361477,60.3270787 45.3608783,60.3163432 45.0277607,60.4071584 C44.1075436,60.6579932 43.3856024,61.2292517 42.9849242,62.0236843 C42.7888163,62.4124729 42.7059041,62.7605923 42.6872655,63.2731373 C42.6722637,63.6861248 42.6806913,63.8004044 42.7475526,64.0896355 C43.0122702,65.2353697 43.9370333,66.141704 45.0985386,66.3938676 C45.4007083,66.45947 46.0432692,66.45947 46.3551954,66.3938676 L46.3551954,66.3938676 L46.3551954,66.3938676 Z M10.0185958,54.1161464 C9.54696488,54.0446692 8.83964085,53.8533172 8.35405716,53.6658467 C6.22610532,52.8443479 4.43819495,51.0865461 3.18489525,48.5844228 C2.14060704,46.4992384 1.43657013,43.713549 1.15510223,40.5530237 C0.961197465,38.3755903 0.948153916,35.7398493 1.12132189,33.7165256 C1.49559831,29.3422158 2.66504163,25.9666293 4.61129299,23.6415555 C6.24782125,21.6867017 8.38028413,20.5061731 10.8596075,20.1827071 C11.0739343,20.1547317 14.6978379,20.141863 23.6583713,20.137282 L36.1581475,20.1309875 L36.1673444,18.933289 L36.1765763,17.7355905 L27.6612021,17.7355905 L19.1457929,17.7355905 L19.1370506,13.687894 C19.1269095,8.97962747 19.1252659,9.11530836 19.1968831,8.73309391 C19.4706227,7.27221644 20.4767944,5.91016221 22.0657644,4.84940346 C24.8782753,2.97193672 29.5600351,2 35.7912146,2 C41.6807441,2 46.0847428,2.89647297 49.0900394,4.7068686 C51.2512121,6.00888054 52.6086503,7.82850806 52.9789752,9.91974213 C53.0290163,10.2022941 53.0344016,11.107964 53.0319188,18.7844597 C53.0301703,24.1316153 53.0161126,27.4918153 52.9943268,27.7540851 C52.9250176,28.5890121 52.7404846,29.4885624 52.4881811,30.2212391 C52.325364,30.6941639 51.9041239,31.5501425 51.6372731,31.9504011 C50.3426747,33.8921764 48.1603106,35.2060079 45.420466,35.6931652 C44.4091188,35.8729424 45.0554914,35.8611578 34.9170871,35.8842025 L25.4928607,35.9056037 L24.9683212,35.9813472 C22.6228603,36.3200948 20.9720296,37.1059949 19.5816503,38.5458908 C18.2291776,39.9465511 17.3920126,41.7963571 17.0036785,44.2423548 C16.930173,44.7050336 16.9284945,44.8086476 16.9170596,49.4440381 L16.9054148,54.1736359 L13.6282319,54.1702089 C10.9666835,54.1674114 10.2886637,54.1573053 10.0187007,54.1164262 L10.0185958,54.1161464 L10.0185958,54.1161464 Z M27.1818779,13.4153783 C28.0711472,13.2030097 28.8758258,12.53632 29.2566414,11.6964623 C29.5204498,11.1146431 29.5916473,10.2974805 29.4313131,9.69111285 C28.9958754,8.04388398 27.3411281,7.06589757 25.702187,7.48717272 C24.6555558,7.75622652 23.8554233,8.53786031 23.5283904,9.61078837 C23.444534,9.88592682 23.4346027,9.9737697 23.4346027,10.4429528 C23.4346027,10.9121359 23.444499,10.9999788 23.5283904,11.2751172 C23.8888539,12.4576391 24.8209256,13.2779139 26.0182745,13.4663285 C26.2897761,13.509061 26.9019137,13.4822745 27.181738,13.4154482 L27.1818779,13.4153783 L27.1818779,13.4153783 Z" id="path2987" sketch:type="MSShapeGroup"></path>
        </g>
    </g>
</svg>