<!-- Generator: Avocode undefined - http://avocode.com -->
<svg height="63" width="74" xmlns:xlink="http://www.w3.org/1999/xlink" xmlns="http://www.w3.org/2000/svg" viewBox="0 0 74 63">
    <path fill="#34495e" fill-rule="evenodd" d="M 4.14 62.39 C 2.01 62.39 0.27 60.65 0.27 58.52 L 0.27 4.37 C 0.27 2.24 2.01 0.5 4.14 0.5 L 69.9 0.5 C 72.03 0.5 73.77 2.24 73.77 4.37 L 73.77 58.52 C 73.77 60.65 72.03 62.39 69.9 62.39 L 4.14 62.39 Z M 2.2 12.11 L 71.84 12.11 L 71.84 4.37 C 71.84 3.3 70.96 2.43 69.9 2.43 L 4.14 2.43 C 3.07 2.43 2.2 3.3 2.2 4.37 L 2.2 12.11 Z M 71.84 14.04 L 2.2 14.04 L 2.2 58.52 C 2.2 59.59 3.07 60.46 4.14 60.46 L 69.9 60.46 C 70.96 60.46 71.83 59.59 71.83 58.52 L 71.83 14.04 L 71.84 14.04 Z M 7.04 5.34 C 8.39 5.34 8.97 5.91 8.97 7.27 C 8.97 8.63 8.39 9.2 7.04 9.2 C 5.68 9.2 5.11 8.62 5.11 7.27 C 5.11 5.91 5.69 5.34 7.04 5.34 L 7.04 5.34 Z M 13.81 5.34 C 15.16 5.34 15.74 5.91 15.74 7.27 C 15.74 8.63 15.16 9.2 13.81 9.2 C 12.45 9.2 11.87 8.62 11.87 7.27 C 11.87 5.91 12.46 5.34 13.81 5.34 L 13.81 5.34 Z M 20.58 5.34 C 21.93 5.34 22.51 5.91 22.51 7.27 C 22.51 8.63 21.93 9.2 20.58 9.2 C 19.22 9.2 18.64 8.62 18.64 7.27 C 18.64 5.91 19.22 5.34 20.58 5.34 L 20.58 5.34 Z M 20.58 5.34" />
</svg>