<?xml version="1.0" encoding="UTF-8" standalone="no"?>
<svg width="100px" height="100px" viewBox="0 0 100 100" version="1.1" xmlns="http://www.w3.org/2000/svg" xmlns:xlink="http://www.w3.org/1999/xlink" xmlns:sketch="http://www.bohemiancoding.com/sketch/ns">
    <!-- Generator: Sketch 3.3.2 (12043) - http://www.bohemiancoding.com/sketch -->
    <title>httpapi-logo</title>
    <desc>Created with Sketch.</desc>
    <defs></defs>
    <g id="Page-1" stroke="none" stroke-width="1" fill="none" fill-rule="evenodd" sketch:type="MSPage">
        <g id="httpapi-logo" sketch:type="MSArtboardGroup" fill="#34495E">
            <path d="M32.496,80.68 L32.496,76.72 L28.104,76.72 C25.512,76.72 23.352,74.272 23.352,70.96 L23.352,55.768 C23.352,52.744 22.416,50.44 20.04,49.432 C22.416,48.424 23.352,46.12 23.352,43.096 L23.352,27.904 C23.352,24.52 25.512,22.144 28.104,22.144 L32.496,22.144 L32.496,18.184 L28.104,18.184 C23.568,18.184 19.104,21.928 19.104,27.904 L19.104,42.664 C19.104,45.328 17.88,47.632 15.36,47.632 L15.36,51.232 C17.88,51.232 19.104,53.536 19.104,56.2 L19.104,71.032 C19.104,76.936 23.568,80.68 28.104,80.68 L32.496,80.68 Z M42,67.72 C44.16,67.72 45.96,65.92 45.96,63.76 C45.96,61.6 44.16,59.8 42,59.8 C39.84,59.8 38.04,61.6 38.04,63.76 C38.04,65.92 39.84,67.72 42,67.72 L42,67.72 Z M58.56,67.72 C60.72,67.72 62.52,65.92 62.52,63.76 C62.52,61.6 60.72,59.8 58.56,59.8 C56.4,59.8 54.6,61.6 54.6,63.76 C54.6,65.92 56.4,67.72 58.56,67.72 L58.56,67.72 Z M68.064,80.68 L72.456,80.68 C77.064,80.68 81.456,76.936 81.456,71.032 L81.456,56.2 C81.456,53.536 82.68,51.232 85.2,51.232 L85.2,47.632 C82.68,47.632 81.456,45.328 81.456,42.664 L81.456,27.904 C81.456,21.928 77.064,18.184 72.456,18.184 L68.064,18.184 L68.064,22.144 L72.456,22.144 C75.048,22.144 77.208,24.52 77.208,27.904 L77.208,43.096 C77.208,46.12 78.144,48.424 80.52,49.432 C78.144,50.44 77.208,52.744 77.208,55.768 L77.208,70.96 C77.208,74.272 75.048,76.72 72.456,76.72 L68.064,76.72 L68.064,80.68 Z" id="{..}" sketch:type="MSShapeGroup"></path>
        </g>
    </g>
</svg>