<!-- Generator: Avocode undefined - http://avocode.com -->
<svg height="63" width="74" xmlns:xlink="http://www.w3.org/1999/xlink" xmlns="http://www.w3.org/2000/svg" viewBox="0 0 74 63">
    <path fill="#34495e" fill-rule="evenodd" d="M 4.14 62.48 C 2.01 62.48 0.27 60.74 0.27 58.61 L 0.27 4.45 C 0.27 2.33 2.01 0.59 4.14 0.59 L 69.9 0.59 C 72.03 0.59 73.77 2.33 73.77 4.45 L 73.77 58.61 C 73.77 60.74 72.03 62.48 69.9 62.48 L 4.14 62.48 Z M 2.2 12.19 L 71.84 12.19 L 71.84 4.45 C 71.84 3.39 70.96 2.52 69.9 2.52 L 4.14 2.52 C 3.07 2.52 2.2 3.39 2.2 4.45 L 2.2 12.19 Z M 71.84 14.13 L 2.2 14.13 L 2.2 58.61 C 2.2 59.68 3.07 60.54 4.14 60.54 L 69.9 60.54 C 70.96 60.54 71.83 59.67 71.83 58.61 L 71.83 14.13 L 71.84 14.13 Z M 71.84 14.13" />
    <text font-weight="500" font-size="20" font-family="Avenir Next" fill="#34495e" y="37" x="10">
        <tspan>&gt;_</tspan>
    </text>
</svg>