<!-- Generator: Avocode undefined - http://avocode.com -->
<svg height="84" width="62" xmlns:xlink="http://www.w3.org/1999/xlink" xmlns="http://www.w3.org/2000/svg" viewBox="0 0 62 84">
    <path fill="#34495e" fill-rule="evenodd" d="M 19.9 64.88 C 19.9 64.88 16.72 66.74 22.17 67.37 C 28.76 68.13 32.14 68.02 39.41 66.64 C 39.41 66.64 41.32 67.84 43.99 68.89 C 27.69 75.91 7.1 68.48 19.9 64.88" />
    <path fill="#34495e" fill-rule="evenodd" d="M 17.91 55.71 C 17.91 55.71 14.34 58.37 19.79 58.93 C 26.84 59.66 32.41 59.72 42.04 57.86 C 42.04 57.86 43.37 59.22 45.46 59.96 C 25.76 65.76 3.81 60.42 17.91 55.71" />
    <path fill="#34495e" fill-rule="evenodd" d="M 34.7 40.15 C 38.72 44.8 33.65 48.99 33.65 48.99 C 33.65 48.99 43.84 43.69 39.16 37.06 C 34.79 30.87 31.43 27.8 49.59 17.2 C 49.59 17.2 21.09 24.36 34.7 40.15" />
    <path fill="#34495e" fill-rule="evenodd" d="M 56.26 71.66 C 56.26 71.66 58.61 73.62 53.66 75.13 C 44.26 77.99 14.51 78.86 6.24 75.24 C 3.27 73.94 8.84 72.14 10.59 71.76 C 12.42 71.36 13.47 71.43 13.47 71.43 C 10.16 69.09 -7.89 76.03 4.3 78.02 C 37.53 83.44 64.88 75.58 56.26 71.66" />
    <path fill="#34495e" fill-rule="evenodd" d="M 21.43 46.2 C 21.43 46.2 6.3 49.82 16.07 51.13 C 20.2 51.69 28.43 51.56 36.09 50.92 C 42.35 50.39 48.64 49.26 48.64 49.26 C 48.64 49.26 46.43 50.21 44.83 51.31 C 29.47 55.37 -0.22 53.48 8.33 49.32 C 15.55 45.81 21.43 46.2 21.43 46.2" />
    <path fill="#34495e" fill-rule="evenodd" d="M 48.58 61.47 C 64.2 53.3 56.98 45.45 51.93 46.51 C 50.7 46.77 50.15 47 50.15 47 C 50.15 47 50.61 46.27 51.48 45.96 C 61.46 42.43 69.13 56.36 48.26 61.88 C 48.26 61.88 48.51 61.67 48.58 61.47" />
    <path fill="#34495e" fill-rule="evenodd" d="M 39.16 0.09 C 39.16 0.09 47.81 8.8 30.95 22.19 C 17.44 32.93 27.87 39.05 30.95 46.05 C 23.06 38.89 17.27 32.58 21.15 26.71 C 26.85 18.1 42.65 13.92 39.16 0.09" />
    <path fill="#34495e" fill-rule="evenodd" d="M 22.97 83.6 C 37.96 84.57 60.99 83.07 61.53 75.93 C 61.53 75.93 60.48 78.64 49.14 80.78 C 36.34 83.21 20.56 82.93 11.2 81.37 C 11.2 81.37 13.11 82.97 22.97 83.6" />
</svg>