<?xml version="1.0" encoding="UTF-8" standalone="no"?>
<svg width="100px" height="100px" viewBox="0 0 100 100" version="1.1" xmlns="http://www.w3.org/2000/svg" xmlns:xlink="http://www.w3.org/1999/xlink" xmlns:sketch="http://www.bohemiancoding.com/sketch/ns">
    <!-- Generator: Sketch 3.3.2 (12043) - http://www.bohemiancoding.com/sketch -->
    <title>javascript-logo</title>
    <desc>Created with Sketch.</desc>
    <defs></defs>
    <g id="Page-1" stroke="none" stroke-width="1" fill="none" fill-rule="evenodd" sketch:type="MSPage">
        <g id="javascript-logo" sketch:type="MSArtboardGroup" fill="#34495E">
            <path d="M13,86.9249628 L13,14 L85.7557633,14 L85.7557633,86.9249628 L13,86.9249628 L13,86.9249628 Z M77.9073318,52.5229488 C76.7073202,50.4118907 75.1875313,48.7266093 72.9536636,47.8738674 C69.8085661,46.6736116 66.6256984,46.6664814 63.4987239,47.9534884 C61.3861276,48.8228674 59.8429652,50.3360047 58.9166613,52.4474023 C57.6348422,55.3691 57.6937842,60.5984465 61.6511972,63.7004372 C63.0041531,64.7611442 64.4978585,65.562786 66.0598213,66.2534 C67.4149791,66.8525093 68.7858886,67.419193 70.1161485,68.0697419 C70.8026195,68.4055419 71.4845174,68.8160395 72.0483619,69.3261907 C73.5439304,70.679407 73.3491508,72.9894326 71.6706589,74.1032767 C71.2199559,74.402407 70.6935429,74.6500977 70.1681462,74.7621442 C67.1209466,75.4118442 64.557478,74.6062977 62.6049397,72.1017186 C62.2971879,71.7068395 62.0173828,71.2902302 61.6972668,70.8454395 C59.8399165,71.9231233 58.0071253,72.9867163 56.1573968,74.059986 C56.2434385,74.2436744 56.2956056,74.3743953 56.3631856,74.4966279 C57.3611346,76.3000674 58.6891926,77.8162605 60.4535568,78.8788349 C64.6792575,81.4236488 69.1837471,81.7565628 73.7842715,80.1897791 C77.3497541,78.9752628 79.4726821,76.4109256 79.8393759,72.5852163 C80.174058,69.0936093 79.1940626,66.0861791 76.3418121,63.8510209 C74.9400766,62.7524558 73.3787912,61.9345163 71.7675406,61.2031581 C70.303645,60.5388581 68.8185777,59.9186977 67.3765313,59.2100884 C66.7788121,58.9163907 66.1926102,58.5167581 65.7332691,58.0381837 C64.1806218,56.4206395 64.9583852,53.7035116 67.1285684,53.1794395 C68.845,52.7648674 70.3908724,53.133093 71.5803828,54.5323163 C71.944536,54.9606395 72.2504246,55.4387047 72.6106821,55.9318791 C74.3650534,54.8029256 76.1106172,53.6794047 77.9073318,52.5229488 L77.9073318,52.5229488 Z M37.6323341,71.4762953 C37.5537448,71.4922535 37.5188538,71.4905558 37.4941253,71.5056651 C35.766007,72.5493953 34.0416148,73.5992372 32.3085847,74.6348186 C32.0236984,74.8050953 32.1170232,74.9775791 32.2235592,75.1836767 C33.4198445,77.498286 35.1483016,79.2587744 37.5927007,80.2191488 C40.4242877,81.3319744 43.3259954,81.3778116 46.2207587,80.5218442 C49.1270394,79.6624814 51.0218213,77.7225488 51.9293248,74.8210535 C52.3678329,73.4189442 52.4885963,71.9766 52.4877494,70.5154116 C52.4835151,63.0252721 52.4858863,55.5349628 52.4858863,48.0448233 L52.4858863,47.4436767 C52.2321647,47.4309442 52.0316265,47.4124395 51.8310882,47.4122698 C49.9864408,47.4100628 48.1419629,47.4105721 46.2973155,47.4110814 C45.6279513,47.4114209 45.6272738,47.4124395 45.6272738,48.0782674 C45.6271044,55.5052535 45.6294756,62.9324093 45.6227007,70.3593953 C45.6220232,70.9423767 45.596109,71.5306209 45.5161647,72.1071512 C45.3000441,73.6647674 44.5116102,74.5730233 43.1586543,74.8312395 C41.2801323,75.1897884 39.7232506,74.6911814 38.6297749,73.0427395 C38.2903503,72.5310605 37.9697262,72.0071581 37.6323341,71.4762953 L37.6323341,71.4762953 Z" id="Imported-Layers" sketch:type="MSShapeGroup"></path>
        </g>
    </g>
</svg>