<?xml version="1.0" encoding="UTF-8" standalone="no"?>
<svg width="68px" height="76px" viewBox="0 0 68 76" version="1.1" xmlns="http://www.w3.org/2000/svg" xmlns:xlink="http://www.w3.org/1999/xlink" xmlns:sketch="http://www.bohemiancoding.com/sketch/ns">
    <!-- Generator: Sketch 3.3.2 (12043) - http://www.bohemiancoding.com/sketch -->
    <title>nodejs</title>
    <desc>Created with Sketch.</desc>
    <defs></defs>
    <g id="Page-1" stroke="none" stroke-width="1" fill="none" fill-rule="evenodd" sketch:type="MSPage">
        <g id="nodejs" sketch:type="MSArtboardGroup" fill="#34495E">
            <g id="path3032-copy" sketch:type="MSLayerGroup" transform="translate(2.000000, 2.000000)">
                <path d="M32.2692273,72 C31.3010167,72 30.3596904,71.7432891 29.5269185,71.2710281 L3.16719217,56.0186916 C1.46136059,55.0346913 0.424883401,53.230654 0.424883401,51.2523366 L0.424883401,20.8037384 C0.424883401,18.8262281 1.46136059,16.9687413 3.16719217,15.9813084 L10.0509395,12.0000002 C13.3954378,10.3484412 14.6289185,10.3738317 16.1511781,10.3738317 C21.1030027,10.3738317 23.9303781,13.3282758 23.9303781,18.5607478 L23.9303781,48.6168223 C23.9303781,49.0416448 23.5632413,49.4018691 23.1468623,49.4018691 L19.8448974,49.4018691 C19.4217957,49.4018691 19.0613816,49.0416448 19.0613816,48.6168223 L19.0613816,18.5607478 C19.0613816,16.2415399 16.6503922,13.9652402 12.7372834,15.9252335 L5.57370445,20.0747665 C5.32074305,20.2132041 5.12598516,20.5128457 5.12598516,20.8037384 L5.12598516,51.2523366 C5.12598516,51.541458 5.31850445,51.8350655 5.57370445,51.9813084 L31.8774729,67.1775701 C32.1237185,67.3195514 32.4169816,67.3195514 32.6609887,67.1775701 L58.9647501,51.9813084 C59.2154799,51.8305795 59.4124764,51.5502056 59.4124764,51.2523366 L59.4124764,20.8037384 C59.4124764,20.5128443 59.2669676,20.2149534 59.020722,20.0747665 L32.6609887,4.8785047 C32.4348904,4.74269245 32.1237185,4.7426907 31.8774729,4.8785047 L25.1056483,8.85981305 C24.9041746,8.9781082 24.6288273,9.02541234 24.4340623,8.91588727 C22.5648202,7.85396531 22.2133536,7.73042203 20.4605185,7.12149469 C20.0284623,6.96991359 19.3725466,6.67989464 20.6843781,5.94392456 L29.5269185,0.728971945 C30.3686448,0.240943852 31.3066238,0 32.2692273,0 C33.2452694,0 34.1698167,0.240943852 35.011536,0.728971945 L61.3712694,15.9813084 C63.0770939,16.9757374 64.1135781,18.8262281 64.1135781,20.8037384 L64.1135781,51.2523366 C64.1135781,53.230654 63.0770939,55.0304297 61.3712694,56.0186916 L35.011536,71.2710281 C34.1854869,71.7432891 33.2374378,72 32.2692273,72 L32.2692273,72 Z M39.3208764,50.1869159 C31.8147922,50.1869159 27.3442659,47.0422427 27.3442659,41.7196259 C27.3442659,35.9454952 31.7812132,34.3590279 38.9850869,33.6448596 C47.6037676,32.799477 48.2753536,31.5315141 48.2753536,29.8317755 C48.2753536,26.8833642 45.9292764,25.6261683 40.3842238,25.6261683 C33.4176413,25.6261683 31.8864273,27.3687476 31.3737816,30.8411212 C31.3133606,31.2134583 31.0267992,31.457944 30.6462308,31.457944 L27.232336,31.457944 C26.8114799,31.457944 26.4488202,31.1513273 26.4488202,30.7289721 C26.4488202,26.2842616 28.8620553,20.9719624 40.3842238,20.9719624 C48.7253115,20.9719624 53.5361045,24.2523366 53.5361045,30.0000002 C53.5361045,35.6978693 49.6498659,37.2273645 41.5594939,38.2990655 C33.3840623,39.3828785 32.6050238,39.9691962 32.6050238,41.8878506 C32.6050238,43.4711777 33.2654167,45.5887849 39.3208764,45.5887849 C44.7293816,45.5887849 46.7284623,44.4199627 47.5478027,40.766355 C47.6194378,40.4227287 47.9216483,40.149533 48.2753536,40.149533 L51.6892413,40.149533 C51.8996764,40.149533 52.1033887,40.2224302 52.2488974,40.373832 C52.3921676,40.536 52.4929045,40.7733082 52.4727571,40.990654 C51.9444483,47.2831404 47.7559922,50.1869159 39.3208764,50.1869159 L39.3208764,50.1869159 Z" sketch:type="MSShapeGroup" transform="translate(32.269231, 36.000000) scale(1, -1) translate(-32.269231, -36.000000) "></path>
            </g>
        </g>
    </g>
</svg>