<?xml version="1.0" encoding="UTF-8" standalone="no"?>
<svg width="119px" height="58px" viewBox="0 0 119 58" version="1.1" xmlns="http://www.w3.org/2000/svg" xmlns:xlink="http://www.w3.org/1999/xlink" xmlns:sketch="http://www.bohemiancoding.com/sketch/ns">
    <!-- Generator: Sketch 3.3.2 (12043) - http://www.bohemiancoding.com/sketch -->
    <title>php</title>
    <desc>Created with Sketch.</desc>
    <defs></defs>
    <g id="Page-1" stroke="none" stroke-width="1" fill="none" fill-rule="evenodd" sketch:type="MSPage">
        <g id="php" sketch:type="MSArtboardGroup" fill="#34495E">
            <g id="Fill-1-+-Fill-2-+-Fill-3" sketch:type="MSLayerGroup" transform="translate(1.000000, 0.000000)">
                <path d="M58.6562263,57.6282051 C56.6264534,57.572765 54.5953432,57.5495228 52.5677995,57.4539952 C49.9771977,57.3322401 47.3939518,57.1104796 44.8182847,56.806625 C41.8041635,56.4511685 38.8105495,55.9839787 35.8421238,55.3734976 C29.4670412,54.0623385 23.2881149,52.1929399 17.4386423,49.401316 C13.9838379,47.7523985 10.7287564,45.8066631 7.81806304,43.3632459 C5.57608469,41.4810534 3.62365991,39.3660123 2.16831325,36.8581993 C0.998284975,34.8423108 0.245534835,32.6954983 0.0516074964,30.3915343 C-0.1762014,27.6847765 0.354758278,25.1042515 1.55398711,22.6454817 C2.77104833,20.1502493 4.50524913,18.0170836 6.55263143,16.1039725 C9.31620746,13.5217418 12.4823499,11.4738686 15.8682766,9.72473239 C20.3439859,7.41266565 25.0718006,5.7019111 29.9552031,4.37070824 C33.566041,3.38643266 37.2252492,2.60216802 40.9392921,2.07356768 C43.0504252,1.77312481 45.1686913,1.50978418 47.2905239,1.28717073 C52.383457,0.752813144 57.4948913,0.655579682 62.6116752,0.802496032 C65.4033373,0.882457761 68.1878664,1.08332163 70.9663771,1.37033093 C76.7407307,1.96673881 82.4281515,2.98705047 88.0036739,4.55024897 C93.0246087,5.9582151 97.8725693,7.77537205 102.432982,10.2509872 C105.647049,11.9958587 108.640886,14.026247 111.235723,16.5619933 C113.260815,18.5409928 114.945977,20.7445248 116.062285,23.3192925 C116.976641,25.4279366 117.415095,27.6214468 117.29272,29.902595 C117.149615,32.5660669 116.282515,35.0209986 114.870412,37.308757 C113.354658,39.7645416 111.372364,41.8352305 109.113891,43.6745635 C105.799516,46.373645 102.081015,48.4549956 98.1436217,50.1949628 C93.4472366,52.270556 88.550014,53.7830055 83.524844,54.9312559 C80.7053188,55.5756408 77.8597138,56.0944325 74.9909266,56.4878443 C73.3608224,56.7115239 71.722025,56.8786972 70.0854565,57.0561056 C67.6121028,57.3241373 65.1282725,57.462098 62.6419903,57.5401406 C61.3150369,57.5819339 59.9856316,57.5476037 58.6573408,57.5476037 C58.656895,57.5744708 58.6564492,57.601338 58.6562263,57.6282051 L58.6562263,57.6282051 Z M79.5627079,38.1821523 L80.0874262,38.1821523 C81.9504661,38.181939 83.8137289,38.1894021 85.6767687,38.1793803 C87.1586411,38.1714907 88.6353866,38.0842791 90.0996495,37.8460998 C92.1031195,37.5204956 93.9518935,36.8360232 95.5753105,35.6523764 C99.8209818,32.5568979 101.651032,28.3931308 101.443507,23.3570345 C101.395583,22.1955637 101.068804,21.0814303 100.490143,20.0474718 C99.4736958,18.231381 97.8866123,17.0656456 95.8900523,16.3734969 C94.1881728,15.7834859 92.4149636,15.6071437 90.6219159,15.6020261 C86.300234,15.5896587 81.9783292,15.5977615 77.6566473,15.5977615 L77.1658105,15.5977615 C75.0823176,25.8503478 73.0048432,36.0720156 70.9224648,46.3186314 L77.9054093,46.3186314 C78.4595511,43.59844 79.0074515,40.9078877 79.5627079,38.1821523 L79.5627079,38.1821523 Z M22.4664871,15.5977615 C20.383663,25.8460832 18.304851,36.0747876 16.2206894,46.3305723 L23.2022965,46.3305723 C23.7562154,43.6144323 24.3072365,40.9134317 24.8642761,38.1821523 L25.3963503,38.1821523 C27.243341,38.181939 29.0905546,38.1887624 30.9377683,38.1795935 C32.4191948,38.1723436 33.8950487,38.0857717 35.3595345,37.8514306 C37.2845419,37.5437378 39.0840539,36.9225951 40.6548653,35.8039838 C45.2640947,32.5215015 47.1868731,28.0892762 46.6536843,22.6646725 C46.5047838,21.1511569 45.8416415,19.8009764 44.782397,18.6473952 C43.7260503,17.4970125 42.4002114,16.7524088 40.8938195,16.2764766 C39.2813248,15.7668539 37.6142184,15.6071437 35.9306171,15.6022393 C31.6102726,15.5896587 27.2899282,15.5977615 22.9698066,15.5977615 L22.4664871,15.5977615 L22.4664871,15.5977615 Z M56.9061992,15.5975482 C57.4641304,12.8457986 58.0084644,10.1599374 58.5570335,7.45317959 L51.6302611,7.45317959 C49.5496659,17.6906265 47.4728602,27.9086693 45.3898131,38.1582704 L52.3177001,38.1582704 C53.5106875,32.2920647 54.7001086,26.4427043 55.8975541,20.5536828 C56.292096,20.5536828 56.6554311,20.5524035 57.0185433,20.5538961 C58.7895234,20.5609327 60.5605036,20.5611459 62.3312608,20.5799103 C62.9903908,20.5869469 63.6363695,20.7035844 64.2504727,20.9441093 C64.8565514,21.1814357 65.2722692,21.5933986 65.3779261,22.2222176 C65.4450205,22.6222395 65.4967345,23.0395331 65.4530451,23.438702 C65.3723535,24.1769087 65.2357128,24.911064 65.0888184,25.6407414 C64.3095425,29.5083304 63.5191214,33.373787 62.7347188,37.240523 C62.6747574,37.535635 62.6308451,37.8337324 62.5742272,38.1599762 L69.579908,38.1599762 C69.6724136,37.7224256 69.7684857,37.2831692 69.8580935,36.8426334 C70.7000056,32.7042407 71.5374596,28.5652084 72.3844986,24.4276687 C72.634598,23.2058535 72.8300856,21.9829721 72.7016924,20.7323707 C72.5140064,18.9071109 71.618597,17.5402984 69.8721365,16.7223432 C69.0438215,16.3342623 68.1657988,16.0973624 67.2639252,15.9314684 C65.9244892,15.6851863 64.5681123,15.6133274 63.2095064,15.6022393 C61.3009939,15.5864602 59.3924814,15.5977615 57.4839689,15.5975482 L56.9061992,15.5975482 L56.9061992,15.5975482 Z" id="Fill-1" sketch:type="MSShapeGroup"></path>
                <path d="M80.5481708,33.3174939 C81.4253019,29.0012664 82.2917336,24.7391996 83.1586111,20.4732946 C83.2798714,20.4581552 83.3692563,20.4364056 83.4581954,20.4372586 C85.4266693,20.4538906 87.3955891,20.4577288 89.3633943,20.4990956 C90.2193495,20.5167938 91.0574722,20.6858862 91.8670631,20.9675648 C93.2836243,21.4605555 94.0004868,22.4505883 94.1447063,23.8617529 C94.2853593,25.2368814 94.0287957,26.5676578 93.6529779,27.8813757 C93.3533936,28.9296207 92.9006736,29.9149624 92.2058787,30.7879313 C91.294866,31.9325568 90.0552914,32.5711844 88.6320431,32.9330379 C87.4288019,33.2390248 86.1979206,33.3294349 84.960575,33.3426552 C83.6175725,33.3571549 82.2741241,33.3475595 80.9308987,33.3467066 C80.8261333,33.3464934 80.721368,33.3311407 80.5481708,33.3174939" id="Fill-2" sketch:type="MSShapeGroup"></path>
                <path d="M25.8477329,33.3232511 C26.7239724,29.011075 27.5899583,24.7490082 28.4568358,20.4822504 C28.5560285,20.4636992 28.6289184,20.4378983 28.7015854,20.438538 C30.7159778,20.4555965 32.730816,20.4568758 34.7445396,20.5035735 C35.5833311,20.5229775 36.4056276,20.6991066 37.1996151,20.9807851 C38.5776138,21.4699376 39.2784271,22.4354489 39.4395874,23.8082318 C39.5800175,25.0033931 39.3921086,26.1682756 39.1007718,27.320151 C38.9543232,27.8992871 38.7595042,28.4711734 38.534816,29.0272806 C37.6436419,31.2355037 35.9546908,32.5406924 33.5433046,33.02622 C32.4775959,33.2409439 31.4007419,33.3292216 30.316755,33.3411626 C28.9432144,33.356302 27.5692281,33.3469198 26.1954647,33.3467066 C26.105634,33.3467066 26.0158032,33.3349789 25.8477329,33.3232511" id="Fill-3" sketch:type="MSShapeGroup"></path>
            </g>
        </g>
    </g>
</svg>