<?xml version="1.0"?>
<svg width="158" height="135" xmlns="http://www.w3.org/2000/svg" xmlns:svg="http://www.w3.org/2000/svg">
 <title>Artboard 1</title>
 <desc>Created with Sketch.</desc>
 <g>
  <title>Layer 1</title>
  <g id="Page-1">
   <g id="Artboard-1">
    <path d="m106.699997,42.25c0,0 0,0 0,0c0,-0.099998 0,-0.099998 0,-0.099998c0,0 0,-0.099998 0,-0.099998c0,0 0,0 0,0c0,0 0,-0.099998 0,-0.099998c0,0 0,0 0,0c0,0 0,-0.100006 0,-0.100006l0,0c0,0 0,0 -0.099991,-0.099998c0,0 0,0 0,0c0,0 0,0 0,0c0,0 0,0 0,0c0,0 0,0 0,0c0,0 -0.100006,-0.099995 -0.100006,-0.099995l0,0c0,0 0,0 0,0c0,0 -0.100006,0 -0.100006,-0.100002c0,0 0,0 0,0c0,0 -0.099991,0 -0.099991,0c0,0 0,0 0,0c0,0 -0.100006,0 -0.100006,0c0,0 0,0 0,0c-0.099991,0 -0.199997,0 -0.300003,0l-15.699997,-0.200001c-0.099991,0 -0.199997,0 -0.300003,0l-13.199997,4c0,0 -0.099991,0 -0.099991,0c0,0 0,0 0,0c0,0 -0.100006,0 -0.100006,0.100002l0,0l-12.799999,7.699997c-0.199997,0.099998 -0.300003,0.200001 -0.400002,0.400002l-6.799999,10.800003c0,0 0,0 0,0c0,0.099998 -0.099998,0.099998 -0.099998,0.199997l0,0l0,0l-5,12.099998l0,0c0,0.100006 0,0.100006 -0.100002,0.200005c0,0 0,0 0,0c0,0.099998 0,0.099998 0,0.199997c0,0 0,0 0,0l0,15.599998c0,0 0,0.100006 0,0.100006c0,0 0,0 0,0c0,0 0,0.099998 0,0.099998c0,0 0,0 0,0c0,0 0,0.099998 0,0.099998c0,0 0,0 0,0c0,0 0,0.099998 0,0.099998c0,0 0,0 0,0l0,0c0,0 0,0.099998 0.100002,0.099998l0,0c0,0 0.099998,0.100006 0.099998,0.100006c0,0 0,0 0,0c0,0 0,0 0.100002,0.099998c0,0 0,0 0,0c0,0 0,0 0,0c0,0 0.099998,0 0.099998,0.099998c0,0 0,0 0,0c0,0 0.099998,0 0.099998,0c0,0 0,0 0,0c0,0 0.100002,0 0.100002,0c0,0 0,0 0,0c0,0 0.099998,0 0.099998,0c0,0 0,0 0,0c0,0 0.100002,0 0.100002,0c0,0 0,0 0,0l48.500004,0.199997c0,0 0,0 0,0c0,0 0,0 0,0l0,0c0,0 0.099991,0 0.099991,0c0,0 0,0 0,0c0,0 0,0 0,0c0,0 0,0 0,0c0,0 0,0 0,0c0,0 0,0 0.099998,0c0,0 0,0 0,0c0,0 0,0 0,0c0,0 0,0 0.099998,0c0,0 0,0 0,0l0,0c0,0 0,0 0,0c0,0 0.100006,0 0.100006,-0.099998l0,0l0,0l0,0l0,0c0,0 0,0 0,0l0,0l0,0c0,0 0,0 0,0c0,0 0,0 0,0l0,0c0,0 0,0 0,0c0,0 0,0 0,0c0,0 0,0 0,0c0,0 0,0 0,0c0,0 0,0 0,0c0,0 0,0 0,0c0,0 0,0 0,0c0,0 0,0 0,0c0,0 0,0 0,0c0,0 0,0 0,0c0,0 0,0 0,0c0,0 0,0 0,0c0,0 0,0 0,0c0,0 0,0 0,0c0,0 0,0 0,0c0,0 0,0 0,0c0,0 0,0 0,0c0,0 0,0 0,0c0,0 0,0 0,0c0,0 0,0 0,0c0,0 0,0 0,0c0,0 0,0 0,0c0,0 0,0 0,0c0,0 0,0 0,0c0,0 0,0 0,0l0,0c0,0 0,0 0,0c0,0 0,0 0,0c0,0 0,0 0,0c0,0 0,0 0,0l4.899994,-50.300003c0,0 0,0 0,0c0.800003,-0.799995 0.800003,-0.899994 0.800003,-1c0,0.100006 0,0 0,0l0,0zm-23,4.900002l7.099998,0l-7,2.800003l-0.099998,-2.800003zm-18,23.400002l8.800003,4l-4.400002,11.400002l-9.800007,-4.300003l5.400005,-11.099998zm11,4.599998l10.199997,0.300003l-6.5,4.900002l-7.399994,4.5l3.699997,-9.700005zm0.600006,-13.400002l11.199997,0.599998l0.5,10.900002l-12,-0.399994l0.300003,-11.100006zm20.299988,27.800003l-14.599991,-8.300003l6.899994,-5.099998l7.699997,13.400002zm-37.39999,-5.400002l7.400005,3.300003l-6.500004,2.299995l-0.900002,-5.599998zm20.699993,-1.399994c0.100006,0.099998 0.200005,0.099998 0.300003,0.199997l13.199997,7.5l-20.399994,-3.5l6.899994,-4.199997zm10.699997,-8.200005l4.800003,-6.300003l2.399994,18.900002l-7.199997,-12.599998zm4.700012,-9.900002l-5,6.599998l-0.400009,-9.199997l9,-3.200005l-3.599991,5.800003zm-6.200005,-4.699997l-5.500008,-7.800003l11.800003,-4.699997l4.5,8.599998l-10.799995,3.900002zm8.400002,-13.400002l5.699997,-2.400002l-0.400002,3l-1.699997,6.400002l-3.599998,-7zm-15.700005,7l4.599998,6.400002l-9,-0.5l4.400002,-5.900002zm-8,18.599998l-7.499992,-3.400002l7.599991,-5.800003l-0.099998,9.200005zm-15.599998,6.400002l-0.299999,-7.699997l4.199997,-0.400002l-3.899998,8.099998zm-5.899998,-1.299995l3.5,-4.300003l0.299999,8.400002c0,0.300003 0.200001,0.599998 0.400002,0.800003l-4.099998,6.400002l-0.100002,-11.300003zm1.199997,13.599998l3.599998,-5.599998l0.799999,4.900002l-4.399998,0.699997zm16.399998,-2.200005l16.100006,2.800003l-23.600002,-0.100006l7.499996,-2.699997zm27.5,-23.099998l4.400002,-7.300003l-2.299995,24l-2.100006,-16.699997zm1.600006,-22.099998l-3.400009,1.400002l-11.699997,0l5.100006,-1.600006l10,0.200005zm-35.300003,11.299995l12.300003,-7.399998l4.5,-0.100002l0.199997,4l-6.300003,8.5l-10.699997,8.200005l-5.899998,0.599998l-0.5,-3.599998l6.399998,-10.200005z" fill="#34495E" id="Imported-Layers-Copy-2"/>
   </g>
  </g>
 </g>
</svg>